<?xml version="1.0" encoding="UTF-8"?>
<svg width="192px" height="192px" viewBox="0 0 192 192" version="1.1" xmlns="http://www.w3.org/2000/svg">
  <circle cx="96" cy="96" r="96" fill="#4f46e5"/>
  <g fill="#ffffff" transform="translate(48, 48)">
    <path d="M92,33.3C90.4,20.3,79.7,10,67,10c-9.3,0-17.3,5.3-21.3,13.3C44.3,22,42.3,21.3,40,21.3c-9.3,0-16.7,7.3-16.7,16.7
      c0,9.3,7.3,16.7,16.7,16.7h51.7c7,0,12.7-5.7,12.7-12.7C104,37,98.7,31.7,92,33.3z"/>
    <path d="M40,63.3c-2.7,0-5-2.3-5-5s2.3-5,5-5h56.7c2.7,0,5,2.3,5,5s-2.3,5-5,5H40z"/>
    <path d="M40,73.3c-2.7,0-5-2.3-5-5s2.3-5,5-5h47.7c2.7,0,5,2.3,5,5s-2.3,5-5,5H40z"/>
    <path d="M40,83.3c-2.7,0-5-2.3-5-5s2.3-5,5-5h39.7c2.7,0,5,2.3,5,5s-2.3,5-5,5H40z"/>
  </g>
</svg>