<?xml version="1.0" encoding="UTF-8"?>
<svg width="512px" height="512px" viewBox="0 0 512 512" version="1.1" xmlns="http://www.w3.org/2000/svg">
  <circle cx="256" cy="256" r="256" fill="#4f46e5"/>
  <g fill="#ffffff" transform="translate(128, 128)">
    <path d="M245.3,88.9c-4.3-34.7-32.8-61.3-68-61.3c-24.8,0-46.1,14.1-56.8,35.5c-3.7-3.5-8.7-5.3-14.7-5.3c-24.8,0-44.5,19.5-44.5,44.5
      c0,24.8,19.5,44.5,44.5,44.5h137.9c18.7,0,33.9-15.2,33.9-33.9C277.3,98.7,263.3,85.1,245.3,88.9z"/>
    <path d="M106.7,168.9c-7.2,0-13.3-6.1-13.3-13.3c0-7.2,6.1-13.3,13.3-13.3h151.1c7.2,0,13.3,6.1,13.3,13.3c0,7.2-6.1,13.3-13.3,13.3
      H106.7z"/>
    <path d="M106.7,195.5c-7.2,0-13.3-6.1-13.3-13.3c0-7.2,6.1-13.3,13.3-13.3h127.2c7.2,0,13.3,6.1,13.3,13.3c0,7.2-6.1,13.3-13.3,13.3
      H106.7z"/>
    <path d="M106.7,222.1c-7.2,0-13.3-6.1-13.3-13.3c0-7.2,6.1-13.3,13.3-13.3h105.9c7.2,0,13.3,6.1,13.3,13.3c0,7.2-6.1,13.3-13.3,13.3
      H106.7z"/>
  </g>
</svg>